<svg width="24" height="24" viewBox="0 0 24 24" fill="none" xmlns="http://www.w3.org/2000/svg">
<path d="M2 21V19H11V7.825C10.5667 7.675 10.1917 7.44167 9.875 7.125C9.55833 6.80834 9.325 6.43334 9.175 6H6L9 13C9 13.8333 8.65833 14.5417 7.975 15.125C7.29167 15.7083 6.46667 16 5.5 16C4.53333 16 3.70833 15.7083 3.025 15.125C2.34167 14.5417 2 13.8333 2 13L5 6H3V4H9.175C9.375 3.41667 9.73333 2.93767 10.25 2.563C10.7667 2.18834 11.35 2.00067 12 2C12.65 1.99934 13.2333 2.187 13.75 2.563C14.2667 2.939 14.625 3.418 14.825 4H21V6H19L22 13C22 13.8333 21.6583 14.5417 20.975 15.125C20.2917 15.7083 19.4667 16 18.5 16C17.5333 16 16.7083 15.7083 16.025 15.125C15.3417 14.5417 15 13.8333 15 13L18 6H14.825C14.675 6.43334 14.4417 6.80834 14.125 7.125C13.8083 7.44167 13.4333 7.675 13 7.825V19H22V21H2ZM16.625 13H20.375L18.5 8.65L16.625 13ZM3.625 13H7.375L5.5 8.65L3.625 13ZM12 6C12.2833 6 12.521 5.904 12.713 5.712C12.905 5.52 13.0007 5.28267 13 5C12.9993 4.71733 12.9033 4.48 12.712 4.288C12.5207 4.096 12.2833 4 12 4C11.7167 4 11.4793 4.096 11.288 4.288C11.0967 4.48 11.0007 4.71733 11 5C10.9993 5.28267 11.0953 5.52033 11.288 5.713C11.4807 5.90567 11.718 6.00134 12 6Z" fill="#3A3A3A"/>
</svg>
