<svg width="24" height="24" viewBox="0 0 24 24" fill="none" xmlns="http://www.w3.org/2000/svg">
<path d="M9.51801 22C9.02801 20.4023 8.28884 19.2112 7.30051 18.4265C5.81801 17.25 3.46251 17.9815 2.59251 16.7675C1.72251 15.5535 3.20201 13.3215 3.72101 12.0045C4.24001 10.6875 1.73101 10.222 2.02401 9.848C2.21901 9.59867 3.48718 8.87933 5.82851 7.69C6.49351 3.89667 8.95034 2 13.199 2C19.572 2 22 7.403 22 10.84C22 14.276 19.06 17.978 14.872 18.7765C14.4977 19.3218 15.0377 20.3963 16.492 22" stroke="#3A3A3A" stroke-width="2.3335" stroke-linecap="round" stroke-linejoin="round"/>
<path d="M9.74998 7.25C9.42298 8.517 9.52015 9.40683 10.0415 9.9195C10.5625 10.4318 11.4505 10.7668 12.7055 10.9245C12.4205 12.5588 12.7676 13.3255 13.747 13.2245C14.726 13.1238 15.3143 12.7172 15.512 12.0045C17.042 12.4345 17.8713 12.0745 18 10.9245C18.1925 9.1995 17.2625 7.824 16.881 7.824C16.4995 7.824 15.512 7.7775 15.512 7.25C15.512 6.7225 14.358 6.425 13.3165 6.425C12.275 6.425 12.9015 5.7225 11.4715 6C10.5181 6.185 9.94432 6.60167 9.74998 7.25Z" stroke="#3A3A3A" stroke-width="2" stroke-linejoin="round"/>
<path d="M15.25 12.75C14.7415 13.0655 14.044 13.59 13.75 14C13.0155 15.025 12.42 15.649 12.29 16.304" stroke="#3A3A3A" stroke-width="2" stroke-linecap="round"/>
</svg>
