<svg width="18" height="18" viewBox="0 0 18 18" fill="none" xmlns="http://www.w3.org/2000/svg">
<path d="M16.5001 3.81997C15.8301 2.44497 13.9001 1.31997 11.6551 1.97497C10.6552 2.32097 9.76969 2.93498 9.09506 3.74997C8.56678 4.44158 8.14851 5.21065 7.85506 6.02997L11.1351 7.49997L8.35006 10.13L9.50006 11.5L8.71506 12.17L6.91506 10.06L9.28506 7.80497L6.56506 6.59997C6.80517 5.62978 7.19304 4.70228 7.71506 3.84997C7.87554 3.58254 8.05255 3.32537 8.24506 3.07997H8.27506C7.7206 2.56992 7.05452 2.19665 6.33006 1.98997C4.09506 1.32997 2.17006 2.44497 1.50006 3.81997C0.560056 5.74497 0.950056 7.90997 2.66006 10.255C4.00006 12.09 5.91506 13.95 8.69506 16.11C8.78291 16.1785 8.89114 16.2157 9.00255 16.2157C9.11397 16.2157 9.2222 16.1785 9.31006 16.11C12.0851 13.955 14.0051 12.11 15.3451 10.255C17.0501 7.90997 17.4401 5.74497 16.5001 3.81997Z" fill="#3A3A3A"/>
</svg>
