<svg width="49" height="49" viewBox="0 0 49 49" fill="none" xmlns="http://www.w3.org/2000/svg">
<path fill-rule="evenodd" clip-rule="evenodd" d="M8.16663 8.16665C8.16663 7.08368 8.59683 6.04507 9.36261 5.27929C10.1284 4.51352 11.167 4.08331 12.25 4.08331H36.75C37.8329 4.08331 38.8715 4.51352 39.6373 5.27929C40.4031 6.04507 40.8333 7.08368 40.8333 8.16665V40.8333C40.8333 41.9163 40.4031 42.9549 39.6373 43.7207C38.8715 44.4864 37.8329 44.9166 36.75 44.9166H12.25C11.167 44.9166 10.1284 44.4864 9.36261 43.7207C8.59683 42.9549 8.16663 41.9163 8.16663 40.8333V8.16665ZM36.75 8.16665H12.25V40.8333H36.75V8.16665ZM16.3333 18.375C16.3333 17.8335 16.5484 17.3142 16.9313 16.9313C17.3142 16.5484 17.8335 16.3333 18.375 16.3333H30.625C31.1664 16.3333 31.6857 16.5484 32.0686 16.9313C32.4515 17.3142 32.6666 17.8335 32.6666 18.375C32.6666 18.9165 32.4515 19.4358 32.0686 19.8187C31.6857 20.2015 31.1664 20.4166 30.625 20.4166H18.375C17.8335 20.4166 17.3142 20.2015 16.9313 19.8187C16.5484 19.4358 16.3333 18.9165 16.3333 18.375ZM18.375 26.5416C17.8335 26.5416 17.3142 26.7568 16.9313 27.1396C16.5484 27.5225 16.3333 28.0418 16.3333 28.5833C16.3333 29.1248 16.5484 29.6441 16.9313 30.027C17.3142 30.4099 17.8335 30.625 18.375 30.625H24.5C25.0414 30.625 25.5607 30.4099 25.9436 30.027C26.3265 29.6441 26.5416 29.1248 26.5416 28.5833C26.5416 28.0418 26.3265 27.5225 25.9436 27.1396C25.5607 26.7568 25.0414 26.5416 24.5 26.5416H18.375Z" fill="#3A3A3A"/>
</svg>
