<svg width="16" height="16" viewBox="0 0 16 16" fill="none" xmlns="http://www.w3.org/2000/svg">
<path fill-rule="evenodd" clip-rule="evenodd" d="M12.5 12.618C12.807 12.343 13 11.944 13 11.5V6.97701C13.0001 6.74726 12.9473 6.52056 12.8459 6.31441C12.7445 6.10826 12.5971 5.92816 12.415 5.78801L8.915 3.09601C8.65271 2.8941 8.331 2.78462 8 2.78462C7.669 2.78462 7.34729 2.8941 7.085 3.09601L3.585 5.78801C3.40281 5.92827 3.2553 6.10852 3.15386 6.31486C3.05243 6.5212 2.99979 6.74809 3 6.97801V11.5C2.99947 11.6966 3.03768 11.8913 3.11244 12.073C3.1872 12.2548 3.29704 12.4201 3.43569 12.5594C3.57434 12.6987 3.73908 12.8093 3.9205 12.8849C4.10192 12.9605 4.29646 12.9996 4.493 13H5V9.50001C5 8.96958 5.21071 8.46087 5.58579 8.0858C5.96086 7.71073 6.46957 7.50001 7 7.50001H9C9.53043 7.50001 10.0391 7.71073 10.4142 8.0858C10.7893 8.46087 11 8.96958 11 9.50001V13H11.507C11.888 12.998 12.237 12.854 12.5 12.618ZM14.5 11.5C14.5 12.2957 14.1839 13.0587 13.6213 13.6213C13.0587 14.1839 12.2956 14.5 11.5 14.5H4.5C3.70435 14.5 2.94129 14.1839 2.37868 13.6213C1.81607 13.0587 1.5 12.2957 1.5 11.5V6.97701C1.50003 6.51768 1.60554 6.06448 1.80839 5.65236C2.01124 5.24024 2.30602 4.88021 2.67 4.60001L6.17 1.90801C6.69458 1.50419 7.33799 1.28522 8 1.28522C8.66201 1.28522 9.30542 1.50419 9.83 1.90801L13.33 4.60001C13.6941 4.88031 13.989 5.24051 14.1918 5.65281C14.3947 6.06511 14.5001 6.51851 14.5 6.97801V11.5ZM9.5 9.50001C9.5 9.3674 9.44732 9.24023 9.35355 9.14646C9.25979 9.05269 9.13261 9.00001 9 9.00001H7C6.86739 9.00001 6.74021 9.05269 6.64645 9.14646C6.55268 9.24023 6.5 9.3674 6.5 9.50001V13H9.5V9.50001Z" fill="#3A3A3A"/>
</svg>
