<svg width="24" height="24" viewBox="0 0 24 24" fill="none" xmlns="http://www.w3.org/2000/svg">
<path d="M16.658 13L19.43 15.38C20.013 15.881 20.305 16.131 20.55 16.414C20.94 16.865 21.247 17.381 21.453 17.936C21.581 18.282 21.658 18.651 21.811 19.39C21.965 20.134 22 21.5 22 22M7.342 13L4.57 15.38C3.987 15.881 3.696 16.131 3.451 16.414C3.0619 16.8636 2.75611 17.379 2.548 17.936C2.419 18.282 2.343 18.651 2.19 19.39C2.036 20.134 2 21.5 2 22" stroke="#3A3A3A" stroke-width="1.5" stroke-linecap="round" stroke-linejoin="round"/>
<path d="M16.5 11C16.5 13.762 14.485 16 12 16C9.51502 16 7.50002 13.761 7.50002 11M16.5 11C16.5 8.942 15.717 6.408 14 6.408C13.217 6.408 13 7.5 12 7.5C11 7.5 10.783 6.408 10 6.408C8.28302 6.408 7.50002 8.942 7.50002 11M16.5 11V12C16.5002 12.343 16.5885 12.6802 16.7565 12.9792C16.9246 13.2781 17.1667 13.5289 17.4596 13.7073C17.7525 13.8857 18.0864 13.9858 18.4292 13.998C18.7719 14.0101 19.1121 13.9339 19.4169 13.7767C19.7217 13.6195 19.981 13.3865 20.1697 13.1001C20.3585 12.8138 20.4705 12.4837 20.4949 12.1416C20.5194 11.7995 20.4554 11.4569 20.3092 11.1466C20.163 10.8364 19.9394 10.5689 19.66 10.37C20.0394 10.0334 20.3075 9.58927 20.4285 9.0967C20.5496 8.60414 20.518 8.0864 20.3378 7.61224C20.1577 7.13807 19.8376 6.72991 19.4201 6.44195C19.0025 6.15398 18.5072 5.99985 18 6C18 3.79 15.5 2 12 2C8.50002 2 6.00002 3.79 6.00002 6C5.4928 5.99985 4.99753 6.15398 4.57997 6.44195C4.16241 6.72991 3.84232 7.13807 3.6622 7.61224C3.48208 8.0864 3.45046 8.60414 3.57152 9.0967C3.69259 9.58927 3.96062 10.0334 4.34002 10.37C4.06063 10.5689 3.83708 10.8364 3.69087 11.1466C3.54465 11.4569 3.48068 11.7995 3.5051 12.1416C3.52951 12.4837 3.6415 12.8138 3.83029 13.1001C4.01909 13.3865 4.27835 13.6195 4.58317 13.7767C4.88798 13.9339 5.22811 14.0101 5.57087 13.998C5.91364 13.9858 6.24752 13.8857 6.54044 13.7073C6.83335 13.5289 7.07547 13.2781 7.24351 12.9792C7.41156 12.6802 7.49989 12.343 7.50002 12V11M14.03 16L15.168 19.367C15.878 21.465 15.544 22 13.243 22H10.757C8.45602 22 8.12302 21.465 8.83202 19.367L9.97102 16" stroke="#3A3A3A" stroke-width="1.5" stroke-linecap="round" stroke-linejoin="round"/>
</svg>
