<svg width="51" height="51" viewBox="0 0 51 51" fill="none" xmlns="http://www.w3.org/2000/svg">
<path fill-rule="evenodd" clip-rule="evenodd" d="M21.25 3.1875C17.7863 3.1875 15.4062 6.0775 15.4062 9.32875C15.4062 13.2387 17.9988 16.235 20.23 18.105C21.5146 19.1794 22.911 20.1127 24.395 20.8888C24.5225 20.9525 24.6287 21.0162 24.7138 21.0375L24.7987 21.08H24.82C25.245 21.2925 25.755 21.2925 26.18 21.1012H26.2013L26.2862 21.0375C26.3713 21.0162 26.4775 20.9525 26.605 20.8888C28.089 20.1127 29.4854 19.1794 30.77 18.105C33.0012 16.235 35.5938 13.2387 35.5938 9.32875C35.5938 6.0775 33.2138 3.1875 29.75 3.1875C28.4963 3.1875 27.37 3.46375 26.35 4.08C26.0525 4.27125 25.755 4.505 25.5 4.73875C25.245 4.505 24.9475 4.27125 24.65 4.08C23.63 3.46375 22.5037 3.1875 21.25 3.1875ZM26.01 17.5738C25.8188 17.68 25.6488 17.7863 25.5 17.8713C25.3512 17.7863 25.1812 17.68 24.99 17.5738C24.0348 17.0083 23.1253 16.3688 22.27 15.6613C20.2512 13.9825 18.5938 11.7937 18.5938 9.32875C18.5938 7.565 19.805 6.375 21.25 6.375C22.015 6.375 22.5463 6.545 22.95 6.77875C23.3538 7.03375 23.7362 7.45875 24.0763 8.13875C24.3525 8.67 24.905 9.01 25.5 9.01C26.095 9.01 26.6475 8.67 26.9237 8.13875C27.2638 7.45875 27.6462 7.03375 28.05 6.77875C28.4537 6.545 28.985 6.375 29.75 6.375C31.195 6.375 32.4062 7.565 32.4062 9.32875C32.4062 11.7937 30.7488 13.9825 28.73 15.6613C27.7525 16.49 26.7537 17.1275 26.01 17.5738ZM18.0625 25.5C12.495 25.5 7.96875 30.0263 7.96875 35.5938C7.96875 41.1613 12.495 45.6875 18.0625 45.6875C19.8475 45.6875 21.5475 45.22 22.9925 44.3913C20.8355 41.9693 19.6476 38.8369 19.6562 35.5938C19.6562 32.215 20.91 29.1337 22.9925 26.7962C21.5475 25.9675 19.8475 25.5 18.0625 25.5ZM18.0625 48.875C20.825 48.875 23.375 48.0462 25.5 46.6012C27.625 48.0462 30.175 48.875 32.9375 48.875C40.2687 48.875 46.2188 42.925 46.2188 35.5938C46.2188 28.2625 40.2687 22.3125 32.9375 22.3125C30.175 22.3125 27.625 23.1412 25.5 24.5863C23.375 23.1412 20.825 22.3125 18.0625 22.3125C10.7312 22.3125 4.78125 28.2625 4.78125 35.5938C4.78125 42.925 10.7312 48.875 18.0625 48.875ZM32.9375 25.5C31.1525 25.5 29.4525 25.9675 28.0075 26.7962C30.09 29.1337 31.3438 32.215 31.3438 35.5938C31.3438 38.9725 30.09 42.0537 28.0075 44.3913C29.4525 45.22 31.1525 45.6875 32.9375 45.6875C38.505 45.6875 43.0312 41.1613 43.0312 35.5938C43.0312 30.0263 38.505 25.5 32.9375 25.5ZM28.1562 35.5938C28.1562 32.9587 27.1575 30.5575 25.5 28.7725C23.8425 30.5575 22.8438 32.9587 22.8438 35.5938C22.8438 38.2287 23.8425 40.63 25.5 42.415C27.1575 40.63 28.1562 38.2287 28.1562 35.5938Z" fill="#3A3A3A" stroke="#3A3A3A" stroke-width="1.5" stroke-linecap="round" stroke-linejoin="round"/>
</svg>
